# xmcd
#
# Track frame offsets:
#	150
#	26912
#	64863
#	99989
#	128832
#	147216
#	213634
#	234246
#
# Disc length: 3444 seconds
#
# Revision: 1
# Processed by: cddbd v1.5.2PL0 Copyright (c) Steve Scherf et al.
# Submitted via: audiograbber 1.83.01
#
DISCID=6f0d7208
DTITLE=Grateful Dead - 70-06-13 Honolulu Civic Auditorium, Honolulu HI
DYEAR=1900
DGENRE=
TTITLE0=Cold Rain and Snow
TTITLE1=Easy Wind
TTITLE2=Uncle John's Band
TTITLE3=Candyman
TTITLE4=Me and My Uncle
TTITLE5=Good Lovin'
TTITLE6=China Cat Sunflower
TTITLE7=I Know You Rider
EXTD=
EXTT0=
EXTT1=
EXTT2=
EXTT3=
EXTT4=
EXTT5=
EXTT6=
EXTT7=
PLAYORDER=
